<svg width="1440px" height="1634px" viewBox="0 0 1440 1634" xmlns="http://www.w3.org/2000/svg">
  <g transform="translate(-1718.000000, -57.000000)">
    <path d="M2839.333,327.318 L3027.778,503.809 L3689,872.671 L3689,35.559 L3408.888,80.808 L2839.333,327.318 Z" fill="#FAFAFA"></path>
    <path d="M2767.436,358.408 L3028.278,503.809 L2839.333,327.318 L2767.436,358.408 Z" fill="#FCFCFC"></path>
    <path d="M2698.2,195.488 L2525.207,223.384 L2767.436,358.408 L2839.333,327.318 L2698.2,195.488 Z" fill="#FAFAFA"></path>
    <path d="M3409.388,80.808 L2698.2,195.488 L2839.333,327.318 L3409.388,80.808 Z" fill="#F8F8F8"></path>
    <path d="M2766.936,358.408 L1689,824.326 L1689,1650 L3689,1650 L3689,1121.915 L3027.528,503.809 L2766.936,358.408 Z" fill="#FFFFFF"></path>
    <path d="M3027.278,503.809 L3689,1121.915 L3689,872.671 L3027.278,503.809 Z" fill="#F8F8F8"></path>
    <path d="M2524.707,223.384 L1689,358.062 L1689,824.326 L2766.686,358.408 L2524.707,223.384 Z" fill="#FCFCFC"></path>
    <path d="M3409.388,81.308 L3598.568,0 L2487.848,0 L2698.2,196.238 L3409.388,81.308 Z" fill="#FEFEFE"></path>
    <path d="M2122.673,0 L1689,0 L1689,358.062 L2524.707,223.884 L2122.673,0 Z" fill="#F6F6F6"></path>
    <path d="M2698.2,195.988 L2487.848,0 L2122.673,0 L2525.207,224.134 L2698.2,195.988 Z" fill="#F8F8F8"></path>
    <path d="M1369.31479,-157.111703 L2809.31479,-147.111703 L2809.31479,3835.8883 L1369.31479,3835.8883 L1369.31479,-157.111703 Z" fill="#FAF4F1" transform="translate(2089.314785, 1839.388297) rotate(-60.000000) translate(-2089.314785, -1839.388297)"></path>
  </g>
</svg>
